<?xml version="1.0" standalone="no"?><!DOCTYPE svg PUBLIC "-//W3C//DTD SVG 1.1//EN" "http://www.w3.org/Graphics/SVG/1.1/DTD/svg11.dtd"><svg t="1630419635242" class="icon" viewBox="0 0 1183 1024" version="1.1" xmlns="http://www.w3.org/2000/svg" p-id="2437" xmlns:xlink="http://www.w3.org/1999/xlink" width="231.0546875" height="200"><defs><style type="text/css"></style></defs><path d="M1177.05449 670.465058c-8.550033 2.850011-17.100065 7.125027-24.937595 12.112546-5.700022 7.125027-10.687541 15.67506-13.537552 24.225092-2.137508 4.275016-7.125027 6.412524-11.400043 4.275017-2.137508-0.712503-3.562514-2.850011-4.275016-4.275017-2.850011-8.550033-7.125027-15.67506-12.112547-22.800087-8.550033-6.412524-17.812568-10.687541-27.075103-14.250054-4.275016-1.425005-6.412524-6.412524-4.275016-10.687541 0.712503-2.137508 2.137508-3.562514 4.275016-4.275016 9.262535-2.850011 18.525071-7.125027 26.362601-12.825049 5.700022-7.125027 9.975038-14.962557 12.825049-23.51259 2.137508-4.275016 7.125027-6.412524 11.400043-4.275016 2.137508 0.712503 3.562514 2.850011 4.275016 4.275016 2.850011 8.550033 7.125027 17.100065 13.537552 24.225093 7.83753 5.700022 16.387563 9.975038 25.650098 12.825049 4.275016 1.425005 6.412524 6.412524 4.275016 10.68754-1.425005 1.425005-2.850011 3.562514-4.987519 4.275017zM1111.50424 329.888758c-6.412524 0-11.400043-4.987519-11.400043-11.400043s4.987519-11.400043 11.400043-11.400044 11.400043 4.987519 11.400044 11.400044c0 6.412524-4.987519 11.400043-11.400044 11.400043z m4.987519 500.176908c0 12.825049-10.687541 23.51259-23.51259 23.51259s-23.51259-10.687541-23.512589-23.51259 10.687541-23.51259 23.512589-23.512589c12.825049 0 23.51259 10.687541 23.51259 23.512589z m-101.887889-151.050576c-7.83753 4.275016-17.100065 4.275016-24.937595-0.712502-0.712503-0.712503-71.250272-44.887671-143.925549-34.912634 5.700022 17.812568 9.975038 36.337639 12.825049 54.86271 0.712503 7.125027-1.425005 14.250054-6.412524 19.237573l-49.875191 49.87519 66.975256 66.262753c9.262535 9.262535 9.262535 24.225092 0 33.487628s-24.225092 9.262535-33.487628 0l-66.262753-66.262753-49.87519 49.87519c-4.987519 4.987519-12.112546 7.83753-19.237573 7.125027-18.525071-2.850011-36.337639-6.412524-54.150207-12.825048-9.262535 71.962775 34.20013 142.500544 34.200131 143.213046 4.987519 7.83753 4.987519 17.100065 0 24.937595-0.712503 1.425005-2.137508 2.850011-3.562514 4.275016-4.987519 4.987519-11.400043 7.125027-18.525071 6.412525-2.850011 0-73.38778-7.125027-151.763079-86.212829-70.537769-70.537769-64.837747-171.000652-61.987736-200.213264-37.050141-27.787606-71.962775-58.425223-104.025397-91.200348C149.625571 455.289237 163.875625 195.225745 163.875625 184.538204c0.712503-12.112546 9.975038-21.375082 22.087584-22.087584 10.687541-0.712503 271.463536-14.962557 463.126767 176.700674 32.775125 32.775125 63.412742 67.687758 91.200348 104.737899 27.075103-2.850011 128.962992-9.262535 200.213264 61.987737 78.375299 79.087802 85.500326 148.200565 85.500326 151.050576 0.712503 7.125027-2.137508 13.537552-6.412525 18.525071-1.425005 1.425005-3.562514 2.137508-4.987519 3.562513zM540.07706 904.878452c22.087584 22.800087 47.737682 41.325158 75.525288 56.287715-12.825049-34.20013-24.225092-81.937813-14.962557-131.100501l-17.812568-9.262535c-23.51259-10.687541-46.312677-22.800087-68.400261-36.337639l-23.512589-12.112546c0 34.912633 8.550033 91.200348 49.162687 132.525506z m75.525288-532.23953c-92.625353-92.625353-205.200783-133.238008-291.413611-150.338074L223.725853 322.763731c17.100065 86.212829 57.71272 198.788258 150.338074 291.413612 49.162688 49.87519 104.025397 93.337856 163.875625 129.675495l64.125245 33.487627c29.212611 13.537552 60.562731 24.225092 91.91285 31.35012l41.325158-41.325158L598.502283 629.852403c-9.262535-9.262535-8.550033-24.225092 0.712503-33.487628 9.262535-8.550033 23.51259-8.550033 32.775125 0L769.502935 733.8778l41.325158-41.325158c-7.83753-37.762644-44.887671-169.575647-195.225745-319.91372z m291.413612 166.013133c-40.612655-40.612655-96.90037-49.162688-132.525506-49.87519l57.712721 109.012915c49.162688-8.550033 96.187867 2.850011 130.387997 15.67506-14.250054-27.787606-33.487628-52.725201-55.575212-74.812785zM363.376386 527.964514c-44.887671-44.887671-44.887671-117.562948 0-162.45062s117.562948-44.887671 162.45062 0 44.887671 117.562948 0 162.45062c-44.887671 44.887671-117.562948 44.887671-162.45062 0zM492.339378 399.001522c-26.362601-26.362601-69.112764-26.362601-96.187867 0-26.362601 26.362601-26.362601 69.112764 0 96.187867 26.362601 26.362601 69.112764 26.362601 96.187867 0 26.362601-27.075103 26.362601-69.825266 0-96.187867z m426.076625 42.750163c0 6.412524-4.987519 11.400043-11.400043 11.400044s-11.400043-4.987519-11.400043-11.400044 4.987519-11.400043 11.400043-11.400043c5.700022 0 11.400043 4.987519 11.400043 11.400043z m40.612655-209.475799c-8.550033 2.850011-17.100065 7.125027-24.937595 12.112546-5.700022 7.125027-10.687541 15.67506-13.537551 24.225093-2.137508 4.275016-7.125027 6.412524-11.400044 4.275016-2.137508-0.712503-3.562514-2.850011-4.275016-4.275016-2.850011-8.550033-7.125027-15.67506-12.112546-22.800087-8.550033-6.412524-17.100065-10.687541-27.075104-13.537552-4.275016-1.425005-6.412524-5.700022-4.987519-9.975038 0.712503-2.137508 2.850011-4.275016 4.987519-4.987519 9.262535-2.850011 18.525071-7.125027 26.362601-13.537552 5.700022-7.125027 9.975038-14.962557 12.825049-23.512589 2.137508-4.275016 7.125027-6.412524 11.400043-4.275017 2.137508 0.712503 3.562514 2.850011 4.275017 4.275017 2.850011 8.550033 7.125027 16.387563 12.825049 23.512589 7.83753 5.700022 16.387563 9.975038 25.650097 12.825049 4.275016 1.425005 6.412524 5.700022 4.987519 9.975038-0.712503 2.137508-2.850011 4.275016-4.987519 5.700022zM686.85262 50.587693c-7.83753 2.137508-15.67506 5.700022-22.087584 10.687541-4.987519 6.412524-9.262535 13.537552-12.112546 21.375081-2.137508 4.275016-6.412524 5.700022-10.687541 3.562514-1.425005-0.712503-2.850011-2.137508-3.562514-3.562514-2.850011-7.125027-6.412524-14.250054-11.400043-19.950076-7.125027-5.700022-15.67506-9.262535-24.225093-12.112546-3.562514-1.425005-5.700022-4.987519-4.275016-9.262535 0.712503-2.137508 2.137508-3.562514 4.275016-4.275017 8.550033-2.137508 17.100065-6.412524 24.225093-11.400043 4.987519-6.412524 8.550033-13.537552 11.400043-20.662579 2.137508-4.275016 6.412524-5.700022 10.687541-3.562514 1.425005 0.712503 2.850011 2.137508 3.562514 3.562514 2.850011 7.83753 6.412524 14.962557 12.112546 21.375082 7.125027 4.987519 14.250054 8.550033 22.800087 11.400043 2.850011 0.712503 4.987519 4.987519 3.562513 8.550033-0.712503 2.137508-2.137508 3.562514-4.275016 4.275016zM456.00174 104.025397c-9.975038 0-17.812568-7.83753-17.812568-17.100065s7.83753-17.812568 17.100065-17.812568c9.975038 0 17.812568 7.83753 17.812568 17.100065 0.712503 9.975038-7.125027 17.812568-17.100065 17.812568zM344.138813 62.700239c-7.83753 2.137508-15.67506 6.412524-22.087584 10.687541-4.987519 6.412524-9.262535 13.537552-12.112547 21.375081-2.137508 4.275016-6.412524 5.700022-10.68754 3.562514-1.425005-0.712503-2.850011-2.137508-3.562514-3.562514-2.137508-7.125027-6.412524-14.250054-10.687541-19.950076-7.125027-5.700022-15.67506-9.262535-24.225092-12.112546-3.562514-1.425005-5.700022-4.987519-4.275017-9.262535 0-2.137508 1.425005-3.562514 3.562514-4.275016 8.550033-2.850011 16.387563-6.412524 23.51259-11.400044 4.987519-6.412524 9.262535-12.825049 11.400043-20.662579 2.137508-4.275016 6.412524-5.700022 10.687541-3.562513 1.425005 0.712503 2.850011 2.137508 3.562514 3.562513 2.850011 7.83753 6.412524 14.962557 12.112546 21.375082 7.125027 4.987519 14.250054 8.550033 22.800087 11.400043 3.562514 1.425005 5.700022 5.700022 3.562513 9.262536-0.712503 1.425005-2.137508 2.850011-3.562513 3.562513z m-165.300631 679.727593c0 9.975038-7.83753 17.812568-17.812568 17.812568s-17.812568-7.83753-17.812568-17.812568 7.83753-17.812568 17.812568-17.812568 17.812568 8.550033 17.812568 17.812568z m-51.300195-146.063057c-11.400043 3.562514-22.087584 8.550033-31.35012 16.387562-7.83753 9.262535-13.537552 19.950076-17.100065 31.35012-2.137508 5.700022-9.262535 8.550033-14.962557 5.700022-2.850011-1.425005-4.987519-3.562514-5.700022-5.700022-3.562514-10.687541-8.550033-20.662579-15.67506-29.212611-10.687541-7.83753-22.087584-14.250054-34.912633-17.812568-5.700022-2.137508-8.550033-7.83753-6.412525-13.537552 0.712503-2.850011 2.850011-5.700022 5.700022-6.412524 12.112546-3.562514 23.51259-9.262535 33.487628-17.100066 7.125027-9.262535 12.825049-19.237573 16.387562-30.637617 2.137508-5.700022 9.262535-8.550033 14.962558-5.700021 2.850011 1.425005 4.987519 3.562514 5.700021 5.700021 3.562514 11.400043 9.262535 22.087584 17.100065 30.637617 9.975038 7.125027 20.662579 12.825049 32.775126 16.387563 5.700022 2.137508 7.83753 7.83753 5.700021 13.537551-0.712503 3.562514-2.850011 5.700022-5.700021 6.412525z m-29.212612-257.213481c-9.975038 0-17.812568-7.83753-17.100065-17.812568 0-9.975038 7.83753-17.812568 17.812568-17.100065 9.975038 0 17.100065 7.83753 17.100065 17.812568 0 9.262535-8.550033 17.100065-17.812568 17.100065zM246.52594 954.753642c8.550033-2.850011 16.387563-6.412524 23.51259-11.400043 4.987519-6.412524 9.262535-13.537552 11.400044-20.662579 2.137508-4.275016 6.412524-5.700022 10.68754-3.562514 1.425005 0.712503 2.850011 2.137508 3.562514 3.562514 2.850011 7.83753 6.412524 14.962557 12.112546 21.375081 7.125027 4.987519 14.250054 8.550033 22.800087 11.400044 3.562514 1.425005 5.700022 4.987519 4.275016 9.262535-0.712503 2.137508-2.137508 3.562514-4.275016 4.275016-7.83753 2.137508-15.67506 5.700022-22.087584 10.687541-4.987519 6.412524-9.262535 13.537552-12.112546 21.375082-2.137508 4.275016-6.412524 5.700022-10.687541 3.562513-1.425005-0.712503-2.850011-2.137508-3.562514-3.562513-2.137508-7.125027-6.412524-14.250054-11.400043-19.950076-7.125027-5.700022-15.67506-9.262535-24.225093-12.112547-3.562514-1.425005-5.700022-5.700022-4.275016-9.262535 0.712503-2.850011 2.850011-4.275016 4.275016-4.987519z m224.438357 19.950076c7.83753 0 14.962557 6.412524 14.962557 14.250055s-6.412524 14.962557-14.250055 14.962557-14.962557-6.412524-14.962557-14.250055c0-8.550033 6.412524-14.962557 14.250055-14.962557z m278.588562-106.875407c9.975038 0 17.812568 7.83753 17.100066 17.812567 0 9.975038-7.83753 17.812568-17.812568 17.100066-9.975038 0-17.100065-7.83753-17.100066-17.812568 0-9.262535 7.83753-17.100065 17.812568-17.100065z m146.77556 57.000217c8.550033-2.850011 16.387563-6.412524 23.51259-11.400044 4.987519-6.412524 9.262535-13.537552 11.400043-20.662578 2.137508-4.275016 6.412524-5.700022 10.687541-3.562514 1.425005 0.712503 2.850011 2.137508 3.562514 3.562514 2.850011 7.83753 6.412524 14.962557 12.112546 21.375081 7.125027 4.987519 14.250054 8.550033 22.800087 11.400044 3.562514 1.425005 5.700022 4.987519 4.275016 9.262535-0.712503 2.137508-2.137508 3.562514-4.275016 4.275016-7.83753 2.137508-15.67506 5.700022-22.087584 10.687541-4.987519 6.412524-9.262535 13.537552-12.112547 21.375082-2.137508 4.275016-6.412524 5.700022-10.68754 3.562513-1.425005-0.712503-2.850011-2.137508-3.562514-3.562513-2.137508-7.125027-6.412524-14.250054-11.400043-19.950076-7.125027-5.700022-15.67506-9.262535-24.225093-12.112547-3.562514-0.712503-6.412524-4.275016-5.700022-7.83753 0-3.562514 2.137508-6.412524 5.700022-6.412524z" fill="#495FA9" p-id="2438"></path></svg>