<?xml version="1.0" standalone="no"?><!DOCTYPE svg PUBLIC "-//W3C//DTD SVG 1.1//EN" "http://www.w3.org/Graphics/SVG/1.1/DTD/svg11.dtd"><svg t="1645587091015" class="icon" viewBox="0 0 1024 1024" version="1.1" xmlns="http://www.w3.org/2000/svg" p-id="22081" xmlns:xlink="http://www.w3.org/1999/xlink" width="200" height="200"><defs><style type="text/css"></style></defs><path d="M915.254373 173.481259H277.621189c-58.850575 0-106.442779 47.592204-106.442778 106.442779v637.633183c0 58.850575 47.592204 106.442779 106.442778 106.442779h637.633184c58.850575 0 106.442779-47.592204 106.442778-106.442779V279.412294c0-58.338831-47.592204-105.931034-106.442778-105.931035z m45.545227 736.911545c0 28.657671-23.54023 52.197901-52.197901 52.197901h-624.327836c-28.657671 0-52.197901-23.54023-52.197901-52.197901v-624.327836c0-28.657671 23.54023-52.197901 52.197901-52.197902h624.327836c28.657671 0 52.197901 23.54023 52.197901 52.197902v624.327836z" p-id="22082" fill="#d81e06"></path><path d="M199.836082 793.715142H115.398301c-28.657671 0-52.197901-23.54023-52.197901-52.197901v-624.327836c0-28.657671 23.54023-52.197901 52.197901-52.197901h624.327836c28.657671 0 52.197901 23.54023 52.197901 52.197901v79.32034l60.897551 1.535233v-86.996502c0-58.850575-47.592204-106.442779-106.442778-106.442779H108.745627C49.895052 4.605697 2.302849 52.197901 2.302849 110.536732v637.633183c0 58.850575 47.592204 106.442779 106.442778 106.442779h92.625687l-1.535232-60.897552z" p-id="22083" fill="#d81e06"></path><path d="M835.422289 504.067966c12.281859 10.746627 13.305347 29.681159 2.55872 41.963019-5.629185 6.14093-13.305347 9.723138-21.493253 9.723138H376.89955c-16.375812 0-29.681159-13.305347-29.681159-29.681159 0-16.375812 13.305347-29.681159 29.681159-29.68116h366.92054l-76.249875-76.761619c-11.770115-11.770115-11.258371-30.704648 0-41.963019 11.770115-11.770115 30.704648-11.770115 41.963018 0l125.889056 126.4008zM356.429785 692.389805c-11.770115-11.258371-12.793603-30.192904-1.535232-41.963018 5.629185-6.14093 13.305347-9.211394 21.493253-9.211395h438.564718c16.375812 0 29.681159 13.305347 29.681159 29.68116 0 16.375812-13.305347 29.681159-29.681159 29.681159H448.543728l76.249875 76.761619c11.770115 11.770115 11.258371 30.704648 0 41.963019-11.770115 11.770115-30.704648 11.770115-41.963018 0l-126.4008-126.912544z" p-id="22084" fill="#d81e06"></path></svg>