<?xml version="1.0" standalone="no"?><!DOCTYPE svg PUBLIC "-//W3C//DTD SVG 1.1//EN" "http://www.w3.org/Graphics/SVG/1.1/DTD/svg11.dtd"><svg t="1649901638205" class="icon" viewBox="0 0 1024 1024" version="1.1" xmlns="http://www.w3.org/2000/svg" p-id="2451" xmlns:xlink="http://www.w3.org/1999/xlink" width="128" height="128"><defs><style type="text/css">@font-face { font-family: feedback-iconfont; src: url("//at.alicdn.com/t/font_1031158_u69w8yhxdu.woff2?t=1630033759944") format("woff2"), url("//at.alicdn.com/t/font_1031158_u69w8yhxdu.woff?t=1630033759944") format("woff"), url("//at.alicdn.com/t/font_1031158_u69w8yhxdu.ttf?t=1630033759944") format("truetype"); }
</style></defs><path d="M358.925672 596.814688v30.450522c0 17.248849 13.985526 31.233352 31.233352 31.233352 17.248849 0 31.233352-13.985526 31.233352-31.233352v-30.450522c0-17.248849-13.985526-31.233352-31.233352-31.233352-17.248849 0-31.233352 13.985526-31.233352 31.233352zM602.506317 596.814688v30.450522c0 17.248849 13.985526 31.233352 31.233352 31.233352s31.233352-13.985526 31.233351-31.233352v-30.450522c0-17.248849-13.984503-31.233352-31.233351-31.233352s-31.233352 13.985526-31.233352 31.233352zM437.047937 699.686636c-14.650675 9.104355-19.155269 28.360931-10.04989 43.01263 11.015891 17.73185 41.238216 47.740304 84.651982 47.740304 43.195801 0 73.79368-29.780257 85.059258-47.379077 9.216919-14.391778 5.03262-33.338293-9.237385-42.742477-14.270005-9.393951-33.576723-5.409197-43.159985 8.739035-0.12689 0.188288-13.049201 18.915815-32.661888 18.915815-19.028379 0-30.93864-17.274432-31.772634-18.530028-9.175987-14.412244-28.259624-18.788925-42.829458-9.756202zM907.576407 160.082952H699.352015v-26.882254c0-40.145325-32.692586-72.807213-72.878844-72.807213h-229.046626c-40.186258 0-72.878844 32.661887-72.878844 72.807213v26.882254H116.323309c-17.248849 0-31.233352 13.984503-31.233352 31.233352s13.984503 31.233352 31.233352 31.233351h791.253098c17.248849 0 31.233352-13.984503 31.233352-31.233351s-13.985526-31.233352-31.233352-31.233352z m-270.692119 0H387.014404v-26.882254c0-5.607718 4.768607-10.340509 10.411117-10.340509h229.046627c5.64251 0 10.411117 4.732791 10.411117 10.340509v26.882254z" p-id="2452" fill="#d81e06"></path><path d="M824.286446 259.279185c-17.248849 0-31.233352 13.984503-31.233352 31.233352v530.07261c0 40.089044-32.692586 72.705905-72.878844 72.705906H303.725466c-40.186258 0-72.878844-32.616862-72.878844-72.705906v-530.07261c0-17.248849-13.984503-31.233352-31.233352-31.233352s-31.233352 13.984503-31.233352 31.233352v530.07261c0 74.535577 60.71378 135.172609 135.345548 135.172609h416.448784c74.632791 0 135.345548-60.637032 135.345548-135.172609v-530.07261c0-17.248849-13.984503-31.233352-31.233352-31.233352z" p-id="2453" fill="#d81e06"></path><path d="M355.781052 259.279185c-17.248849 0-31.233352 13.984503-31.233351 31.233352v167.494758c0 17.248849 13.985526 31.233352 31.233351 31.233352 17.248849 0 31.233352-13.985526 31.233352-31.233352v-167.494758c0-17.248849-13.984503-31.233352-31.233352-31.233352zM699.352015 458.007295v-167.494758c0-17.248849-13.984503-31.233352-31.233351-31.233352s-31.233352 13.984503-31.233352 31.233352v167.494758c0 17.248849 13.985526 31.233352 31.233352 31.233352s31.233352-13.984503 31.233351-31.233352zM511.949858 489.240647c17.248849 0 31.233352-13.985526 31.233352-31.233352v-167.494758c0-17.248849-13.985526-31.233352-31.233352-31.233352s-31.233352 13.984503-31.233352 31.233352v167.494758c-0.001023 17.248849 13.984503 31.233352 31.233352 31.233352z" p-id="2454" fill="#d81e06"></path></svg>