<?xml version="1.0" standalone="no"?><!DOCTYPE svg PUBLIC "-//W3C//DTD SVG 1.1//EN" "http://www.w3.org/Graphics/SVG/1.1/DTD/svg11.dtd"><svg t="1646102788191" class="icon" viewBox="0 0 1024 1024" version="1.1" xmlns="http://www.w3.org/2000/svg" p-id="1918" xmlns:xlink="http://www.w3.org/1999/xlink" width="200" height="200"><defs><style type="text/css"></style></defs><path d="M762.164596 141.112901c-14.305821-9.648754-33.714869-5.897314-43.36874 8.393157-9.658987 14.295588-5.897314 33.709753 8.393157 43.36874 106.3604 71.862701 169.864736 191.282534 169.864736 319.445496 0 212.409714-172.807764 385.217479-385.222595 385.217479-212.409714 0-385.217479-172.807764-385.217479-385.217479 0-128.169101 63.49922-247.587911 169.859619-319.445496 14.295588-9.658987 18.057261-29.073152 8.398274-43.36874-9.648754-14.290471-29.068036-18.041912-43.363623-8.393157C137.924279 224.601384 64.144926 363.375008 64.144926 512.320295c0 246.856247 200.828958 447.685205 447.685205 447.685205s447.690322-200.828958 447.690322-447.685205C959.521476 363.375008 885.73803 224.606501 762.164596 141.112901z" p-id="1919"></path><path d="M400.357294 64.635089c-17.248849 0-31.234375 13.985526-31.234375 31.234375l0 30.476105c0 17.248849 13.985526 31.234375 31.234375 31.234375 17.248849 0 31.234375-13.985526 31.234375-31.234375L431.591669 95.868441C431.590646 78.619592 417.60512 64.635089 400.357294 64.635089z" p-id="1920"></path><path d="M623.310132 64.635089c-17.248849 0-31.234375 13.985526-31.234375 31.234375l0 30.476105c0 17.248849 13.985526 31.234375 31.234375 31.234375 17.248849 0 31.234375-13.985526 31.234375-31.234375L654.544507 95.868441C654.543484 78.619592 640.558981 64.635089 623.310132 64.635089z" p-id="1921"></path><path d="M425.353594 227.656977c11.209296 18.047028 41.97602 48.589648 86.157265 48.589648 43.958164 0 75.100442-30.3134 86.574774-48.223305 9.302877-14.528901 5.068436-33.846876-9.455349-43.149752-14.539134-9.307993-33.851992-5.063319-43.149752 9.455349-0.121773 0.198521-13.379729 19.449981-33.968649 19.449981-20.008706 0-32.443923-18.127869-33.277918-19.374256-9.17087-14.427594-28.28009-18.799158-42.829458-9.760295C420.747693 193.748702 416.249239 213.006302 425.353594 227.656977z" p-id="1922"></path><path d="M730.470757 605.14747 449.365474 605.14747c-17.248849 0-31.233352 13.985526-31.233352 31.234375 0 17.248849 13.985526 31.233352 31.233352 31.233352L730.470757 667.615197c17.248849 0 31.234375-13.985526 31.234375-31.233352C761.704109 619.132996 747.719606 605.14747 730.470757 605.14747z" p-id="1923"></path><path d="M314.018903 605.14747l-20.822235 0c-17.248849 0-31.234375 13.985526-31.234375 31.234375 0 17.248849 13.985526 31.233352 31.234375 31.233352l20.822235 0c17.248849 0 31.233352-13.985526 31.233352-31.233352C345.252255 619.132996 331.267752 605.14747 314.018903 605.14747z" p-id="1924"></path><path d="M730.470757 428.155407 449.365474 428.155407c-17.248849 0-31.233352 13.985526-31.233352 31.234375 0 17.248849 13.985526 31.234375 31.233352 31.234375L730.470757 490.624157c17.248849 0 31.234375-13.985526 31.234375-31.234375C761.704109 442.140932 747.719606 428.155407 730.470757 428.155407z" p-id="1925"></path><path d="M314.018903 428.155407l-20.822235 0c-17.248849 0-31.234375 13.985526-31.234375 31.234375 0 17.248849 13.985526 31.234375 31.234375 31.234375l20.822235 0c17.248849 0 31.233352-13.985526 31.233352-31.234375C345.252255 442.140932 331.267752 428.155407 314.018903 428.155407z" p-id="1926"></path></svg>