<?xml version="1.0" standalone="no"?><!DOCTYPE svg PUBLIC "-//W3C//DTD SVG 1.1//EN" "http://www.w3.org/Graphics/SVG/1.1/DTD/svg11.dtd"><svg t="1645540990992" class="icon" viewBox="0 0 1024 1024" version="1.1" xmlns="http://www.w3.org/2000/svg" p-id="1829" data-spm-anchor-id="a313x.7781069.0.i1" xmlns:xlink="http://www.w3.org/1999/xlink" width="200" height="200"><defs><style type="text/css"></style></defs><path d="M896 896A128 128 0 0 1 768 1024H128A128 128 0 0 1 0 896V256a128 128 0 0 1 128-128A128 128 0 0 1 256 0h640A128 128 0 0 1 1024 128V768a128 128 0 0 1-128 128z m-832 0a64 64 0 0 0 64 64H768a64 64 0 0 0 64-64V448h-768V896z m0-640v128h768V256A64 64 0 0 0 768 192H128A64 64 0 0 0 64 256z m896-128a64 64 0 0 0-64-64H256a64 64 0 0 0-64 64H768a128 128 0 0 1 128 128v576A64 64 0 0 0 960 768V128zM160 256h384a32 32 0 0 1 0 64h-384a32 32 0 0 1 0-64z m576 0a32 32 0 1 1 0 64 32 32 0 0 1 0-64z" p-id="1830"></path></svg>