<?xml version="1.0" standalone="no"?><!DOCTYPE svg PUBLIC "-//W3C//DTD SVG 1.1//EN" "http://www.w3.org/Graphics/SVG/1.1/DTD/svg11.dtd"><svg t="1645542547396" class="icon" viewBox="0 0 1024 1024" version="1.1" xmlns="http://www.w3.org/2000/svg" p-id="2927" xmlns:xlink="http://www.w3.org/1999/xlink" width="200" height="200"><defs><style type="text/css"></style></defs><path d="M614.4512 204.8H409.6a51.2 51.2 0 1 1-102.4 0H204.8v102.4h614.4V204.8h-102.3488a51.2 51.2 0 1 1-102.4 0z m102.4-102.4H870.4a51.2 51.2 0 0 1 51.2 51.2v819.2a51.2 51.2 0 0 1-51.2 51.2H153.6a51.2 51.2 0 0 1-51.2-51.2V153.6a51.2 51.2 0 0 1 51.2-51.2h153.6V51.2a51.2 51.2 0 1 1 102.4 0v51.2h204.8512V51.2a51.2 51.2 0 0 1 102.4 0v51.2zM819.2 409.6H204.8v512h614.4V409.6z m-144.4864 82.9952l72.3968 72.448-289.5872 289.5872L276.48 673.6384l72.3968-72.3968 108.6464 108.5952 217.1904-217.2416z" p-id="2928"></path></svg>