<?xml version="1.0" standalone="no"?><!DOCTYPE svg PUBLIC "-//W3C//DTD SVG 1.1//EN" "http://www.w3.org/Graphics/SVG/1.1/DTD/svg11.dtd"><svg t="1649901655629" class="icon" viewBox="0 0 1024 1024" version="1.1" xmlns="http://www.w3.org/2000/svg" p-id="2655" xmlns:xlink="http://www.w3.org/1999/xlink" width="128" height="128"><defs><style type="text/css">@font-face { font-family: feedback-iconfont; src: url("//at.alicdn.com/t/font_1031158_u69w8yhxdu.woff2?t=1630033759944") format("woff2"), url("//at.alicdn.com/t/font_1031158_u69w8yhxdu.woff?t=1630033759944") format("woff"), url("//at.alicdn.com/t/font_1031158_u69w8yhxdu.ttf?t=1630033759944") format("truetype"); }
</style></defs><path d="M928.926668 536.489764 805.914006 536.489764 699.098235 285.733697c-4.839215-11.44875-16.003486-17.154705-28.437679-17.286712-12.861936-0.152473-23.750937 6.687306-28.833699 18.033725l-89.196485 198.275809L429.851025 174.404122c-4.727675-11.895935-16.226566-23.128767-29.016871-23.128767-0.061398 0-0.121773 0-0.183172 0-12.861936 0-24.360827 9.475815-28.976962 21.48329L232.525867 536.489764 96.03217 536.489764c-17.253966 0-31.233352 13.979386-31.233352 31.233352s13.979386 31.233352 31.233352 31.233352l157.957545 0c12.932544 0 24.523533-6.000668 29.15911-18.078751l118.193913-305.780265 120.562866 303.001989c4.6366 11.67183 15.799848 19.294438 28.355815 19.559475 12.485359 0.304945 24.035416-7.254218 29.169343-18.702967l90.081645-201.604624 86.939071 204.533326c4.880147 11.550057 16.216333 17.071817 28.763091 17.071817l143.713123 0c17.253966 0 31.233352-13.979386 31.233352-31.233352S946.180634 536.489764 928.926668 536.489764z" p-id="2656"></path><path d="M390.594953 642.651642c-17.253966 0-31.233352 13.979386-31.233352 31.233352l0 30.470989c0 17.253966 13.979386 31.233352 31.233352 31.233352s31.233352-13.979386 31.233352-31.233352l0-30.470989C421.828304 656.632051 407.848918 642.651642 390.594953 642.651642z" p-id="2657"></path><path d="M634.363885 642.651642c-17.253966 0-31.233352 13.979386-31.233352 31.233352l0 30.470989c0 17.253966 13.979386 31.233352 31.233352 31.233352 17.253966 0 31.233352-13.979386 31.233352-31.233352l0-30.470989C665.597237 656.632051 651.616828 642.651642 634.363885 642.651642z" p-id="2658"></path><path d="M589.504188 784.097118c-14.304797-9.404184-33.592073-5.38873-43.159986 8.764618-0.132006 0.193405-13.614066 19.754926-34.172287 19.754926-19.98824 0-32.423457-18.09717-33.266661-19.368116-9.17087-14.427594-28.254507-18.799158-42.834574-9.770528-14.650675 9.109472-19.155269 28.366048-10.055007 43.017746 11.214413 18.047028 41.96988 48.588625 86.156242 48.588625 43.963281 0 75.104535-30.318516 86.573751-48.223305C607.967702 812.464189 603.778286 793.502325 589.504188 784.097118z" p-id="2659"></path></svg>